<svg xmlns="http://www.w3.org/2000/svg" viewBox="0 0 32 32">
  <rect width="32" height="32" rx="6" fill="#1A1612"/>
  <!-- Ears -->
  <path d="M6 4 L12 14 L4 15 Z" fill="#1A1612" stroke="#C4783A" stroke-width="0.5"/>
  <path d="M26 4 L20 14 L28 15 Z" fill="#1A1612" stroke="#C4783A" stroke-width="0.5"/>
  <!-- Inner ears -->
  <path d="M7 6 L11 13 L6 14 Z" fill="#C4783A"/>
  <path d="M25 6 L21 13 L26 14 Z" fill="#C4783A"/>
  <!-- Head -->
  <ellipse cx="16" cy="18" rx="11" ry="10" fill="#1A1612"/>
  <!-- Tan cheeks -->
  <ellipse cx="11" cy="19" rx="5" ry="5.5" fill="#C4783A"/>
  <ellipse cx="21" cy="19" rx="5" ry="5.5" fill="#C4783A"/>
  <!-- Cream face -->
  <ellipse cx="16" cy="21" rx="6.5" ry="7" fill="#F5E6D0"/>
  <!-- Eyes -->
  <ellipse cx="12.5" cy="17" rx="1.8" ry="2" fill="#1A1612"/>
  <ellipse cx="19.5" cy="17" rx="1.8" ry="2" fill="#1A1612"/>
  <circle cx="13" cy="16.5" r="0.6" fill="#FFF5E1"/>
  <circle cx="20" cy="16.5" r="0.6" fill="#FFF5E1"/>
  <!-- Nose -->
  <ellipse cx="16" cy="21" rx="1.8" ry="1.2" fill="#1A1612"/>
  <!-- Mouth -->
  <path d="M14.5 22.5 Q16 24 17.5 22.5" stroke="#1A1612" stroke-width="0.6" fill="none" stroke-linecap="round"/>
</svg>
